/* XPM */
static char *result[] = {
/* columns rows colors chars-per-pixel */
"50 50 238 2 ",
"   c #000000",
".  c #0A0201",
"X  c #020109",
"o  c #120401",
"O  c #140901",
"+  c #1D1005",
"@  c #2A1506",
"#  c #351B07",
"$  c #231E18",
"%  c #36281C",
"&  c #3E2517",
"*  c #3C2009",
"=  c #4D2A0A",
"-  c #53340E",
";  c #4B3015",
":  c #6A3D0B",
">  c #483C29",
",  c #584013",
"<  c #674717",
"1  c #764A13",
"2  c #7A5313",
"3  c #524833",
"4  c #725434",
"5  c #765A41",
"6  c #7F7350",
"7  c #766E52",
"8  c #87590C",
"9  c #814D15",
"0  c #8C5C1C",
"q  c #895615",
"w  c #925D19",
"e  c #8E6117",
"r  c #91621A",
"t  c #996819",
"y  c #9D731E",
"u  c #9E6A0F",
"i  c #A66D1D",
"p  c #AC741D",
"a  c #A5771B",
"s  c #B47B1B",
"d  c #845927",
"f  c #946121",
"g  c #9D6A22",
"h  c #946B2C",
"j  c #996828",
"k  c #9D7223",
"l  c #9D722C",
"z  c #9A6B35",
"x  c #936A34",
"c  c #A16D25",
"v  c #A76D26",
"b  c #A47221",
"n  c #AC7524",
"m  c #A3722A",
"M  c #A57A2C",
"N  c #AB7C2A",
"B  c #AA7825",
"V  c #B47D24",
"C  c #B37E2C",
"Z  c #BA7F2E",
"A  c #AA7433",
"S  c #A77636",
"D  c #A36D3C",
"F  c #967541",
"G  c #A17948",
"H  c #B4831C",
"J  c #BC891B",
"K  c #AE8A18",
"L  c #AD8125",
"P  c #AD862C",
"I  c #B28224",
"U  c #BC8426",
"Y  c #BC8B24",
"T  c #B4832C",
"R  c #BB842B",
"E  c #B38A2E",
"W  c #BC8B2B",
"Q  c #B68925",
"!  c #BE922D",
"~  c #B48333",
"^  c #BB8633",
"/  c #BD8D32",
"(  c #BB8C3A",
")  c #B68838",
"_  c #BE933B",
"`  c #BB9435",
"'  c #A98939",
"]  c #C28F25",
"[  c #C38B2C",
"{  c #C48B2D",
"}  c #C4932C",
"|  c #CB942C",
" . c #CC9C2D",
".. c #C79426",
"X. c #D19B2C",
"o. c #C38D32",
"O. c #CA8C31",
"+. c #C28E3C",
"@. c #C78632",
"#. c #C39334",
"$. c #CB9533",
"%. c #CB9B32",
"&. c #C4933C",
"*. c #CA943B",
"=. c #C49A3D",
"-. c #CB9B3B",
";. c #C69B34",
":. c #D39B34",
">. c #D99D35",
",. c #D49D3A",
"<. c #D69B3A",
"1. c #D6A32D",
"2. c #CEA034",
"3. c #CDA33B",
"4. c #D4A334",
"5. c #DBA434",
"6. c #DBAA35",
"7. c #D4A33B",
"8. c #DBA33C",
"9. c #DDAA3C",
"0. c #D4A83A",
"q. c #DBB13B",
"w. c #E3AC35",
"e. c #E2AD3B",
"r. c #E8AF3F",
"t. c #E3B235",
"y. c #E5B33B",
"u. c #EAB43D",
"i. c #E6BA3C",
"p. c #ECBB3D",
"a. c #EAB835",
"s. c #F2BF3E",
"d. c #E2A82E",
"f. c #EDC13C",
"g. c #E2C039",
"h. c #F4C43E",
"j. c #F9C43F",
"k. c #F6C838",
"l. c #AF8643",
"z. c #BC9349",
"x. c #BB9554",
"c. c #B58C4E",
"v. c #958667",
"b. c #A5906B",
"n. c #CB9B45",
"m. c #C69A48",
"M. c #D29E43",
"N. c #CBA345",
"B. c #D3A342",
"V. c #D3AA42",
"C. c #DCAC43",
"Z. c #D6A94A",
"A. c #DBAB4D",
"S. c #D7A447",
"D. c #DCB143",
"F. c #DDB149",
"G. c #CFAA58",
"H. c #D4A354",
"J. c #DAAC53",
"K. c #D6AC59",
"L. c #D8B255",
"P. c #E3AE44",
"I. c #E3AA47",
"U. c #E4B443",
"Y. c #EBB542",
"T. c #E5BB43",
"R. c #EDBB43",
"E. c #E5B44A",
"W. c #E9B54A",
"Q. c #E5BA4A",
"!. c #ECBC4B",
"~. c #F2BD43",
"^. c #F1BD4B",
"/. c #F4B742",
"(. c #E1AF59",
"). c #E4B552",
"_. c #EEBC51",
"`. c #E3BB5C",
"'. c #ECBA5A",
"]. c #E6B855",
"[. c #F2BD52",
"{. c #F2BF5E",
"}. c #C99F62",
"|. c #D3AD69",
" X c #DCBC6B",
".X c #DAB765",
"XX c #DBB976",
"oX c #CEB162",
"OX c #E8BC65",
"+X c #E8BF72",
"@X c #ECC244",
"#X c #EDC24B",
"$X c #EBC44E",
"%X c #F4C443",
"&X c #F3C943",
"*X c #F3C44B",
"=X c #F9C64A",
"-X c #F4C94C",
";X c #F9C746",
":X c #EDC354",
">X c #EBC45C",
",X c #ECC859",
"<X c #F3C553",
"1X c #F9C652",
"2X c #F5C954",
"3X c #F3C45B",
"4X c #F3CB5B",
"5X c #F8CC5C",
"6X c #FACB53",
"7X c #F5D25D",
"8X c #DEC16F",
"9X c #DFCB7E",
"0X c #EDC869",
"qX c #F5CC63",
"wX c #F4CC6A",
"eX c #F9CE6C",
"rX c #F5C762",
"tX c #F3D16D",
"yX c #FAD56A",
"uX c #EDCD7B",
"iX c #EAC776",
"pX c #F3CD76",
"aX c #F3CC78",
"sX c #EED279",
"dX c #F9D476",
"fX c #F3D47C",
"gX c #F6D97C",
"hX c #F9DA7D",
"jX c #F8D877",
"kX c #DAC68F",
"lX c #EACC83",
"zX c #F3D583",
"xX c #F4DA83",
"cX c #FADD8D",
"vX c #F6DC87",
"bX c #F5D693",
"nX c #F6E087",
"mX c #F7E393",
/* pixels */
"                                                                                                    ",
"                                                                                                    ",
"                                                                                                    ",
"                          .                                             X                           ",
"                          X X X       . 7 zX:X<XqX4X$X'.pXkX%                                       ",
"                            3 kX. 3 lXC.P : 9 0 4XT 0 q : 1 C.E.b.    3                             ",
"                  X       X `.G.V.j c qX2Xm c ^ >X#XqXm l zX<XlX0 iXD.O G.                          ",
"                        X G.fX^.9.^ _.-XL 2X~ Q.H C ) >Xo.0.0.a I q @Xy z..                         ",
"                      . }.1 +.@Xa W E.Q.f.8.5XJ.{ { 6XE.C C.*XW { 4X/ T.(._ 3   .                   ",
"                  X $ b $.:.:.[ 3X3X} hXK.gXW %.,.7.W wXqXOXiX4X-.Q !.:.X.:.9 b.X X                 ",
"            X     . +XV.8.8.4.>.0.7.$Xe / Q *X1X:X^.*X=Xm.Q t L.4XqX! 5.<.,.`.P.c.X   .             ",
"                . j S.l ! zX].w.#X` jX0.e u.e.).W T A.C.6.7.P 2X` #X9.0XsXN Z.U.r 6                 ",
"            X   G r H A.8.M _ gX' ^.#.w.w.u.e...{ / [ I.e.e.e.P.f.M sXP m.! E. .y.A %               ",
"              5 &.~.Y.S.{.R.g !.y W. .u.W.J.| O.$.i.O.#.#.} T.2Xu.^ @X~ T.3XI.T.p.T.j     .         ",
"        X % S D S.p.R.U.9.R.dXR i.f.U.qXu.$.C g i./.s U %.u {.D.a.f.T.#XR.!.!.p.u.~.OXv.v.X         ",
"        X ; XXT .X#Xs.Y Z.U.%.h.] :.>.U.:X3XhX3X=X*X-X4XxXQ.&Xh. .<.6.*XV.C.%.h.~.tXR ~ F   X       ",
"        X . 1 ~ l #.1XxX).J rXeX_.7.Y 1.-X-Xr V.mXmXsX&.P -X3.f.S.7./.eX^.T.tX<XzXN K.f 1 X         ",
"          4 0 <Xe ;.A t :.%XR Q.9.s 0X!.H.!.@X&Xj.%X~.s.T.].l -XR.2.I.I 5.I OX-.fXN  .W d   X       ",
"        . q :Xm.#.hX0.9.>X#Xk.=Xh.yX! C.t.p.~.h.;X%X~.R.u.u.e.V.T.@X$.7.%XaXQ.U.*XiXn. XB 4         ",
"        > c B oXsXB 8  .y E.xX*X*X0.pXe.r.R.h.%Xj.h.h.s.Y.y.9.8.uXyX&XjX_.u -X&.-Xb nXj [.h         ",
"        d =Xm.) U &X).;X;Xk.M.#X#X*X8.w.u.p.s.h.;X%X%Xp.p.w.w.5.:.H *X/ -X;Xk.P.y.i.#.R R.q         ",
"      X 2 &Xw f R *X4.k.@Xj.h.5X4.h.6.w.e.U.s.h.;.Q _.h.R.C.e.5.:.h.!.*Xk.*X&X| 2.!.:.( -XL         ",
"        t *X&X*XuX` >.;XR.2X&X#X;X;X7.9.5.&Xt.%X*XjXp.~.%Xh.| 5...&X6.;X&Xp.6XR._.B.vX*X&X*X        ",
"        { h.4XoXz H.y.*X~.%Xj.u.h.h.X.e.;Xh.*X&X&Xk.h.R.;Xh.;X6.6.h.-X;X&XR.R.=X9..Xf zX=X&XO       ",
"      .  Xl.S ~ 4.*X*X#X*X'.&XR.&X&X1Xe.2Xh.#X%X&Xh.%XR.%Xk.5X6.1X#X*X*X1X%X%X%X6.-Xg m.j .X@       ",
"        d z.w :X;X*X;X>X7XrX*Xf.uXzXK.w.:X$XyXh.%Xs %Xs.4X@XE.4.A.N.+X~.4XP G.*X5.j.h.B.M x >       ",
"        ).q l.e uX$X%X! &X=X&X*Xo.7.5.w.u.p.~.h.6.@X&X~.u.t.6.6.:.o.U ^.h.&XK %X6.4X Xx j _ +       ",
"        9.&XE S h *.~.R.@XY.%X~.W :X5.e.y.u.~.&X=Xk.t.p.p.r.9.C.X.B.} p.f.*X~.;X8.%.c.g ;X;XO       ",
"        M %X%X*X-.&.P.*XR.y.%Xp.R.>.4.h.p.R.s.h.*X1X~.R.s.t.R.%X .[ 2X%X%XR.E.*X7.L Q.*Xh.1X        ",
"        2 %XC d R *X1.h.*X~.h. .rXX.8.!.p.J t.U.U.U.y.t.8. .s.@XX.9.*X%X~.J %XR.U.<XL 0 ^.n.        ",
"      X 4 *XY P { ^.Y @Xh.~.@X,X@X8.9.%Xp.R.@XdXjX*X@XhX3X%XY.R.-.eXf.#X@X%X%X9.4.9.%.E u.j         ",
"        @ m.w lXvXn.J.3X#XT.~ %X*XtXR.f.R.*Xp.*X1Xh.p.<X_.%XY.s.@X4.R.b !.:X@XK.jXL.lXG.*Xd         ",
"        . q /.w 8 E./ 9.y.o.R.wXg.} jXf.w.:XxX$X2XnXnXqX%X,XP.R.4X@XR.@X4.R.wX&.} T e C Z.&         ",
"        X ; v aX{ f H.N.Q.p.<.:. .E.{ 4X$Xu.0.i.y.R.p.U.dX8.0X:Xa.(. .| C.eX#.3.x.n.tXG.d           ",
"          v.x.n lX*.$.b } U.:.} p ..OXu #XzX@X_.u.Y.T.!.q.cX#X#.OX} @.$.Q.T.T #.%.XXM R ;           ",
"        . h z.B U.y.u.!.n.W.,Xr.U.O.V eX../ #.$XnXnXcX#Xt 6.1Xt.@.:.t.U._.<XW.t.y.o.( C m           ",
"        X @ = D P.e.t.E.!.7.).6.I./ *.R.r.w.I.5.$.a U e.t.P. .>X{ i q.:Xp 7.! U.w.A.O.) A   X       ",
"      X       * ].w.e.$.} e.fX@XdXw.qXe.V V OXOXU.'.e.OXm.C $.#X9.>X#XpX>X9._._.w.9.m X             ",
"                r 8.P.'.uXQ.l 3XI hX<X4.>.U N n B A 8.B w <.6.Q aXD.!.z.P 0X=.I.9.H.<               ",
"                . l S.z `.k R 4.n *Xt 3XzX<.>.5.M.V 1.>.>.S.jX*X*X7.4.8.j W.`.C 0X#                 ",
"                    ~ / $.:.| $.*X4Xb zX:Xi.!.*X*X;X2X&XN C.wX|.B.2.-.:.:. .*.q l.X                 ",
"                    o o.*.} O.0Xa H #.a m.t aX4X{ +.n.F.7.T ~ 0.Q W 1X} { O.+X-                     ",
"                      . 0 iXQ./ 3XY I.[.*X6Xa Z.&.W -XrXU 9.*X-.W 1XE %Xn.( +                       ",
"                          z zXy.y.C s n 4X2XC @X5XC ` Y C T.2XW V :XW.bX*..     X                   ",
"                        X    X^.M.|.p m B.n B s ` -XF.N s 0 7.q ) ).[.`..                           ",
"                          X - O o ( V.iXc.v m v 3Xr u v c i XXiXB.@ - -                             ",
"                          X       X   o # k !.<X:X@X@X].~ < O     X X .                             ",
"                                                  .                   X                             ",
"                                                                                                    ",
"                                                                                                    "
};