/* XPM */
static char *_a814dafa7ef476ae942a67344ceaee6a3scxXP5VlZamUAG[] = {
/* columns rows colors chars-per-pixel */
"50 50 147 2 ",
"   c #000000",
".  c #060A05",
"X  c #090E07",
"o  c #05090C",
"O  c #0B0D0B",
"+  c #140F0A",
"@  c #0C100A",
"#  c #13120F",
"$  c #0B1116",
"%  c #0D161D",
"&  c #141514",
"*  c #1B1715",
"=  c #161A16",
"-  c #191A17",
";  c #1A1C19",
":  c #241F1C",
">  c #1E221D",
",  c #22241F",
"<  c #28231F",
"1  c #1B1F23",
"2  c #121D28",
"3  c #14202B",
"4  c #1A2430",
"5  c #1F2A33",
"6  c #1C2D3D",
"7  c #232623",
"8  c #292420",
"9  c #252A24",
"0  c #292E26",
"q  c #2C2E2C",
"w  c #322B27",
"e  c #342D29",
"r  c #2A3029",
"t  c #2E382D",
"y  c #37302D",
"u  c #39312E",
"i  c #333333",
"p  c #3E3632",
"a  c #353D33",
"s  c #3E3E3D",
"d  c #433A37",
"f  c #443B38",
"g  c #384136",
"h  c #3C443B",
"j  c #3D493B",
"k  c #253847",
"l  c #21364A",
"z  c #26394A",
"x  c #273F54",
"c  c #283F54",
"v  c #294056",
"b  c #2C465E",
"n  c #2E4A63",
"m  c #2F4E6A",
"M  c #2F516E",
"N  c #31526E",
"B  c #335674",
"V  c #335876",
"C  c #355C7D",
"Z  c #395F7D",
"A  c #444444",
"S  c #454A44",
"D  c #4B4B4B",
"F  c #455343",
"G  c #4C5D4A",
"H  c #545554",
"J  c #5B5B5B",
"K  c #51644E",
"L  c #576C54",
"P  c #586E55",
"I  c #656564",
"U  c #6E6E6E",
"Y  c #717171",
"T  c #787877",
"R  c #7B7C7B",
"E  c #355F80",
"W  c #376184",
"Q  c #396280",
"!  c #37658A",
"~  c #38668C",
"^  c #39688E",
"/  c #3B6B92",
"(  c #3B6F98",
")  c #3E7097",
"_  c #3B719B",
"`  c #3C74A0",
"'  c #3D78A6",
"]  c #3E7AA8",
"[  c #406C8D",
"{  c #43759A",
"}  c #487A9D",
"|  c #467DA6",
" . c #477EA7",
".. c #467CA4",
"X. c #467DA6",
"o. c #487AA0",
"O. c #407CAA",
"+. c #477FA9",
"@. c #427FAD",
"#. c #4481AF",
"$. c #4380AE",
"%. c #4880A8",
"&. c #4881AB",
"*. c #4D84AB",
"=. c #4C84AC",
"-. c #4C84AB",
";. c #4786B4",
":. c #4583B1",
">. c #4A89B7",
",. c #4F8BB6",
"<. c #4A89B7",
"1. c #4E8EBC",
"2. c #4F8FBD",
"3. c #4F8FBD",
"4. c #508DB8",
"5. c #518EB8",
"6. c #5390BB",
"7. c #5292C0",
"8. c #5799C7",
"9. c #5799C7",
"0. c #599BC8",
"q. c #5A9DCB",
"w. c #5B9ECC",
"e. c #5B9FCD",
"r. c #5B9FCE",
"t. c #5B9ECC",
"y. c #5CA0CF",
"u. c #5DA0CD",
"i. c #60A2CE",
"p. c #66A7D1",
"a. c #6BACD4",
"s. c gray53",
"d. c #868686",
"f. c #888888",
"g. c gray55",
"h. c #8C8C8C",
"j. c #929292",
"k. c #9F9F9F",
"l. c #9D9D9D",
"z. c #A2A2A2",
"x. c gray68",
"c. c #B1B1B1",
"v. c gray75",
"b. c #CDCDCD",
"n. c #D1D1D1",
"m. c #DADADA",
"M. c #E7E7E7",
/* pixels */
"                                      b b ] ] w.w...~ o.~ ~ ~ w.w.;.] ! b v                         ",
"                                  o n C b #.0.^ ^ ~ ~ C b ~ ~ ^ ^ ,.0.~ w.n b                       ",
"                                n ] ] >.y.n ^ ^ C V V V b V V V ^ ^ ^ ^ t.] ] n n                   ",
"                            v b ' ] 8./ ^ C n V V V n n b n V V V m B W ^ { 8.] ` v                 ",
"                          $ b ] ] w.^ W V V V b n b b & & 1 b b V N V V V ^ ^ O.] V b               ",
"                          l ] ] &.^ C V m 5 5 5 ; ; ; < 8 : ; ; 5 5 5 k V V C  .2.] ! 2             ",
"                        b m ] w.^ ^ V N & < : e w e e e e e e e : 8 e ; b V V ^ ~ ;.] b             ",
"                      3 b =.4.W C V z ; 8 e e f < u u u u u u u u u e w : 1 N V ^ &.] ^ b           ",
"                      C ] b / ^ V b e u e f f # & r r j & a a # # y f p : d & V V ^ b C ] v         ",
"                    6 ] O.6.~ ^ b & e e : & & g r a a L & a a g a , & * w e < v V ~ n 2.] _         ",
"                    ~ ( w.~ V b : e f & & a g.J > & & = & & & O P R a 7 & * e < + N V  .] ] n       ",
"                    C  .~ ~ n 1 w d & r R R I > ; > > 7 & > > > & D Y R a 9 * e & z V W w.] n       ",
"                N b C { ~ V b & w e r a f.Y J & > > > 7 & , r r & S Y R a a # e : z V C w.] b b w.  ",
"                 .2.V { ~ W b & u : a S I i & = 7 7 > 7 & > > > > & & D J a & y u z V ! w.` ! +.^   ",
"                ! ~ ^ { ~ V b & d & a 0 & & A & > r r r & r r > > i & & > a r d e z V C w.B w.^ b   ",
"                ! C C Z C N b & u & a ; ; 9 H 7 , 7 > 7 & > 7 7 & D s.& > a a u e z N V *.n C / b   ",
"                x ^ _ ] ] ] b & d & a > & J f.X O 7 r r & r r O @ I Y h > 0 a d e z V E ^ ] ] ]     ",
"                c ~ ~ V V V b & e & L > & J . & q @ @ q & 9 @ @ l.# U s > 0 a w e z V V B V ~ n     ",
"                    N V V n b & w & P ; O & . U l.s . . & . s i l.q @ O & 0 a w : z V m V V n       ",
"                    V W V n b & e & a ; l.d.; Y l.b.b.m.O l.b.n.R i @ x.O 0 a w w z V m ~ ~ n       ",
"                    C ^ ~ n b & : & a ; J l.. J l.v.b.M.O b.b.l.J s b.z.& 0 a : : z V B ^ ) n       ",
"                    ! / w.n b & f & L > & H l.j.s.l.b.m.O z.z.s.s.l.j.q ; 9 a d p z ^ B ^ @.n       ",
"                    ! _ w.n b & d & L > > > f.s.s.s.s.z.O s.s.s.s.s.J = > r r d : z V C ^ @.n       ",
"                    W ] 7.n b & d & L J > @ I g.l.f.s.z.O s.s.g.l.s.@ = ; R r d e z V C ] ] n       ",
"                    C _ ] n b & w & L U . ; J l.l.b.b.z.O f.n.b.l.Y J & f.H r w : z V C ^ ] n       ",
"                    C _ ] n b & d & L q X > J J 9 9 l.c.O z.& 7 9 J Y @ J r r f e z V C ^ ] n       ",
"                    C ] ^ n b & f & L r X J l.9 & @ @ T O I @ @ q R Y s J - a f e z V B ] ] b       ",
"                    C >.~ n b & d & h > @ J l.l.9 @ R T O J . @ g.x.Y s r > a p d z ^ B ] ] n       ",
"                    C >.~ n b & d & a > O J Y l.l.l.J c.O j.z.l.b.j.Y s r > a d e z ^ B ] ] n       ",
"                    C $.^ n b & u & L > r ; I Y Y U f.c.@ l.U I Y I J - r > a u e z C B ] ] n       ",
"                    C / V n b & d & L > r @ @ J J Y l.i & q U Y J 9 @ - r - a d e z V m V ] n       ",
"                    W ^ W n b & d & G > 0 0 = X = Y l.s & A U Y S & r 0 0 - a d e z C N V ` n       ",
"                  b V B B b n & e & a > r 7 r & , Y Y d.O Y Y Y @ 7 r r r - a w e z n m B V b %     ",
"                  b ] ] ] C ] & e & a = r r r r R T J d.O U z.. O r r r > > a w e W ] ] ] ] ] n     ",
"                  b w.w.w.w.w.& w & L = > > > r @ R J T O U z.@ X 7 > > > > a w : } w.w.w.w.w.m     ",
"                *.b n m n n n & < & h = , 7 r r 0 U l.d.O Y g.O r r r , , - a < : z n n n n n b     ",
"                4.] ] ( ] ] ] & d & a = > > > r q T & d.O I z.O > 7 > > > - a d e E ] ] ] ] ] 0.    ",
"              ] /  . .>.>.>.<.& d & L = > = > > > s & h & 9 D > > ; = > > > a d e Q  .>.>.>. .[ ] ] ",
"              w.m ^ _ ] ^ ^ ^ & d & L = & L ; r q > & F & t > r r F L & > > a d e M ^ _ ^ ^ ^ n ] t.",
"              w.m ^ ^ ^ V V V & w & a t a a > > > > & F & a > > > > a F P > a w : b V V ^ ^ ^ n ] t.",
"              w.V m m m m m m & w & a F a > , , > t > F & a > K , , > a a a r w : x m m m m m m @.t.",
"              t.w.w.w.w.w.w.w.& w & r a & & & & & r a F & a a & & & & > r a r w : } w.w.w.w.w.w.t.t.",
"              b ] ] ] ] ] ' ^ & : & r t P h P P P h r j & r a P P G P G a r r : : M ^ ] ] ] ^ ^ ] b ",
"              b / ] ] _ ^ ~ ^ & - & = = - - - - - - - ; & - - - , ; - - = - - - - M C ^ / ' ] / ^ b ",
"              b ^ ^ ^ ^ ^ V V 4 b b b b b b b b b b b b b b b b b b b b b b b b b n V C ^ ^ ^ ^ ^ b ",
"              b B m m m m m m b W _ W W W n V W _ W W W W W W W W W V m W W W V V n m m m m m B B b ",
"              b C C _ _ _ _ _ _ ' ] ] ] ] V _ ] >.>.>.:.] >.>.>.>._ ^ C ^ ] ] _ _ W C ^ ^ ^ ^ ^ ^ b ",
"              b ^ w.t.w.w.] w.w.w.w.w.2.] C ] ' t.t.t.t.w.t.t.t.t.w.] C ] w.w.w.w.w.] ] ] ] ] / ^ b ",
"              b ' t.t.t.a.a.t.a.t.t.t.t.] E ] 8.8.8.t.t.t.t.t.a.a.i.t._ 8.8.8.a.y.p.a.a.t.t.w.@.$.b ",
"              / ^ ~ ~ ~ ~ ~ ~ ~ ~ ~ ~ ~ ^ ^ ^ ^ ^ ^ ~ ~ ~ ~ ~ ~ ~ ~ ~ ^ ^ ^ ^ ~ ~ ~ ~ ~ ~ ~ ~ ~ ~ / "
};