/* XPM */
static char *ee57815b2d884332d15582343ee87427b1GvQMNUi809FChs[] = {
/* columns rows colors chars-per-pixel */
"50 50 12 1 ",
"  c gray1",
". c #030301",
"X c #020200",
"o c #040402",
"O c #050402",
"+ c #040404",
"@ c #050304",
"# c #040301",
"$ c #030200",
"% c #040203",
"& c #060405",
"* c #060503",
/* pixels */
"                     ....X.ooOOOOOOOOOOOOOOOOOoooo",
"++++                 ....X.ooOOOOOOOOOOOOOOOOOoooo",
"++++                 ....X.ooOOOOOOOOOOOOOOOOOoooo",
"++++                 ....X.ooOOOOOOOOOOOOOOOOOoooo",
"++++                 ....X.ooOOOOOOOOOOOOOOOOOoooo",
"++++                 ....X.ooOOOOOOOOOOOOOOOOOoooo",
"    @@@@@@@@OOOOOOOOOO##$####OOOOOOOOOOOOOOOOOOOOO",
"    @@@@@@@@OOOOOOOOOO##$####OOOOOOOOOOOOOOOOOOOOO",
"    @@@@@@@@OOOOOOOOOO##$####OOOOOOOOOOOOOOOOOOOOO",
"    @@@@@@@@OOOOOOOOOO##$####OOOOOOOOOOOOOOOOOOOOO",
"    %%%%@@@@OO##$OOOOO##$############OOOOOOOOOOOOO",
"    %%%%@@@@OO##$OOOOO##$############OOOOOOOOOOOOO",
"    %%%%@@@@OO##$OOOOO##$############OOOOOOOOOOOOO",
"    %%%%@@@@OO##$OOOOO##$############OOOOOOOOOOOOO",
"    %%%%%%%%#############################OOOOOOOOO",
"    %%%%%%%%#############################OOOOOOOOO",
"    %%%%%%%%#############################OOOOOOOOO",
"    %%%%%%%%#############################OOOOOOOOO",
"++++%%%%%%%%#############$#OO#################OOOO",
"++++%%%%%%%%#############$#OO#################OOOO",
"++++%%%%%%%%#############$#OO#################OOOO",
"++++%%%%%%%%#############$#OO#################OOOO",
"OOOO@@@@%%%%#########################.........####",
"OOOO@@@@%%%%#########################.........####",
"OOOO@@@@%%%%#########################.........####",
"OOOO@@@@%%%%#########################.........####",
"OOOO@@@@%%%%#########################.........####",
"OOOO@@@@%%%%#########################.........####",
"OOOO@@@@%%%%#########################.........####",
"OOOO@@@@%%%%#########################.........####",
"OOOOOOOOOOOOOOOOO####################.........    ",
"OOOOOOOOOOOOOOOOO####################.........    ",
"OOOOOOOOOOOOOOOOO####################.........    ",
"OOOOOOOOOOOOOOOOO####################.........    ",
"OOOOOOOOOOOOOOOOO####################.........    ",
"OOOOOOOOOOOO#########################.........    ",
"OOOOOOOOOOOO#########################.........    ",
"OOOOOOOOOOOO#########################.........    ",
"OOOOOOOOOOOO#########################.........    ",
"OOOO@@@@@@@@OOOOOOOOO................         ....",
"OOOO@@@@@@@@OOOOOOOOO................         ....",
"OOOO@@@@@@@@OOOOOOOOO................         ....",
"OOOO@@@@@@@@OOOOOOOOO................         ....",
"OOOO&&@%@@@@OOOOOOOOO................         ....",
"OOOO&&@%@@@@OOOOOOOOO................         ....",
"OOOO&&@%@@@@OOOOOOOOO................         ....",
"OOOO&&@%@@@@OOOOOOOOO................         ....",
"OOOO******O#@@@@@@@@@O##$####                 ....",
"OOOO******O#@@@@@@@@@O##$####                 ....",
"OOOO******O#@@@@@@@@@O##$####                 ...."
};