/* XPM */
static char *f71f62ab416848f8f815d7c1eccf40fb7YwAQNLCOeIj3WBZ[] = {
/* columns rows colors chars-per-pixel */
"50 50 122 2 ",
"   c #000000",
".  c #080D05",
"X  c #06090D",
"o  c #140F0A",
"O  c #0D100A",
"+  c #14110E",
"@  c #090F14",
"#  c #0E161E",
"$  c #151210",
"%  c #181715",
"&  c #191917",
"*  c #1C1C19",
"=  c #231F1C",
"-  c #1E221D",
";  c #24211E",
":  c #111B25",
">  c #1C2329",
",  c #1A2430",
"<  c #1C2D3D",
"1  c #262524",
"2  c #2C2623",
"3  c #262A25",
"4  c #2E2824",
"5  c #2C2D2C",
"6  c #322B27",
"7  c #342D29",
"8  c #2A3129",
"9  c #39312D",
"0  c #222B34",
"q  c #323432",
"w  c #3D3532",
"e  c #373F34",
"r  c #3E3F3E",
"t  c #433A37",
"y  c #453C39",
"u  c #384036",
"i  c #3E413E",
"p  c #414F3F",
"a  c #243340",
"s  c #263A4B",
"d  c #273E53",
"f  c #283F54",
"g  c #294057",
"h  c #2C465E",
"j  c #2D4760",
"k  c #2E4A63",
"l  c #2F4E6A",
"z  c #304F6A",
"x  c #2F516E",
"c  c #30516D",
"v  c #335674",
"b  c #335876",
"n  c #355B7B",
"m  c #385C7A",
"M  c #434443",
"N  c #474947",
"B  c #484A48",
"V  c #445142",
"C  c #535453",
"Z  c #5B5B5B",
"A  c #345F81",
"S  c #376184",
"D  c #3A6383",
"F  c #37658A",
"G  c #39668C",
"H  c #39688E",
"J  c #3B6C93",
"K  c #3A6F98",
"L  c #3C729D",
"P  c #3D76A1",
"I  c #3D79A7",
"U  c #3F7BA9",
"Y  c #3E7AA8",
"T  c #3F7CAA",
"R  c #3F7CAB",
"E  c #3E7AA8",
"W  c #417197",
"Q  c #41749B",
"!  c #42759D",
"~  c #487A9C",
"^  c #477EA7",
"/  c #477EA7",
"(  c #487AA0",
")  c #407CAA",
"_  c #407DAB",
"`  c #427FAD",
"'  c #4280AE",
"]  c #4A84AA",
"[  c #4C84AA",
"{  c #4982AC",
"}  c #4B85AC",
"|  c #4786B4",
" . c #4884B0",
".. c #4F8CB7",
"X. c #4B89B7",
"o. c #4C8BB9",
"O. c #4C8BBA",
"+. c #4E8EBC",
"@. c #508BB4",
"#. c #508DB8",
"$. c #528EB9",
"%. c #528FBA",
"&. c #518EB8",
"*. c #5392BE",
"=. c #5495C4",
"-. c #5596C4",
";. c #5495C3",
":. c #5799C7",
">. c #599BC8",
",. c #599BC9",
"<. c #599CCA",
"1. c #5A9DCB",
"2. c #5A9ECC",
"3. c #5B9ECC",
"4. c #5B9ECD",
"5. c #5B9FCD",
"6. c #5C9FCD",
"7. c #5B9ECC",
"8. c #5BA0CE",
"9. c #5CA0CE",
"0. c #5CA0CF",
"q. c #5DA1D0",
/* pixels */
"                                  h h h U U v U U U K h h X                                         ",
"                              : l U U U U | v <.| | U U U n h X                                     ",
"                            h h U U 2.2.0.G m G G G 2.2.6.U R h h                                   ",
"                        k k L h o.>.H H H G c h G G H H G >.) [ k k X                               ",
"                    k k R U -.0.v H H v v v v h v v v H H H f 2.U U R k                             ",
"                  : h U I I ! H v b v v v b b h b v v v v h H H 2.I U L h                           ",
"                s v U ) Q ! n n v v l k k h > > a k k v k v v n H ! -.U K s                         ",
"                h U U >.H H v v h h h $ % % = = * % % j h h h v v H H :.U k                         ",
"              s U ' { H v v c 0 = * ; 2 2 2 6 7 2 2 2 * ; ; * h v v H J o.U h @                     ",
"            s ( U %.H v v h % = 7 7 t = 7 y y y y y 6 7 y 7 7 & % l v n H ) 2.h                     ",
"            j k @.F F v s * 6 7 9 9 w = w $ $ $ $ $ 7 w w 9 9 6 2 0 v n n K h v #                   ",
"          h U +.k G v h ; 7 7 = $ $ $ $ $ $ $ $ $ $ $ $ $ $ $ 4 7 4 % h H k >.U U <                 ",
"        k R P ^ v c o ; 7 y + $ $ $ $ $ $ $ $ $ $ $ $ $ $ $ $ $ + w 7 = h v G | U G                 ",
"        k U *.H v c % 7 y O $ $ $ $ $ $ $ $ $ $ $ $ $ $ $ $ $ $ $ 2 7 6 k v H %.U F                 ",
"]   } s h H %.S v s = 7 + * $ $ $ $ $ $ $ $ $ $ $ $ $ $ $ $ $ $ $ $ 9 6 % v n ..U F s h             ",
"2.  8.<.h v %.n v s = ; + - $ $ $ $ $ $ $ $ $ $ $ $ $ $ $ $ $ $ $ $ 7 = % v v %.U c U 2.            ",
"h   h J o.h %.S v s w t q & % $ $ $ $ $ $ $ $ $ $ $ $ $ $ $ $ $ & 1 - t % v A %.H D { F             ",
"h   h I H J @.n v s 7 7 - - - $ $ $ $ $ $ $ $ $ $ $ $ $ $ $ $ * - M e 7 % v v %.h H H L             ",
"s   s h l v v v v s 7 t $ * - $ $ $ $ $ $ $ $ $ $ $ $ $ $ $ $ - 3 M e t % k k l v v v x             ",
"      k H H v v v s 7 6 $ O - $ $ $ $ $ $ $ $ $ $ $ $ $ $ $ $ O O M e 7 % v v v v H H d             ",
"      k h h h h h s = 7 5 Z O $ $ $ $ $ $ $ $ $ $ $ $ $ $ $ $ O Z M e 6 % h h h h h k g             ",
"        k v v l v s = 7 5 Z 5 $ $ $ $ $ $ $ $ $ $ $ $ $ $ $ $ 5 Z r e 6 % v h v v n                 ",
"        k H n l v s 7 7 Z Z 5 5 $ $ $ $ $ $ $ $ $ $ $ $ $ $ $ 5 Z r e 7 % v h S H n                 ",
"        k P H D S s w 9 Z Z 1 1 $ $ $ $ $ $ $ $ $ $ $ $ $ $ $ 5 5 r e w % S h H P (                 ",
"        k U J H H s 7 t Z Z 1 1 $ $ $ $ $ $ $ $ $ $ $ $ $ $ $ 5 5 M e t % G h H U (                 ",
"        k U L H v s 2 t Z B 1 1 $ $ $ $ $ $ $ $ $ $ $ $ $ $ & 5 M M 8 t % v h L U W                 ",
"        k H P n v s 6 w Z 5 1 1 $ $ $ $ $ $ $ $ $ $ $ $ $ $ 1 5 C Z 8 w % v h P U F                 ",
"        k H J n v s 7 7 Z 5 1 1 $ $ $ $ $ $ $ $ $ $ $ $ $ $ + 5 5 r 8 7 % v h J U F                 ",
"        h H J n v s 7 t Z 5 1 5 $ $ $ $ $ $ $ $ $ $ $ $ $ $ $ 1 5 M 3 t % v h J U F                 ",
"        k H ;.v G s ; ; Z 5 O $ $ $ $ $ $ $ $ $ $ $ $ $ $ $ $ O O 5 e ; % F h P U F                 ",
"        h H ;.v H s y t Z 5 O $ $ $ $ $ $ $ $ $ $ $ $ $ $ $ $ N . 5 e y % G h P U F                 ",
"        k H ;.v H s 7 t N 5 ; $ $ $ $ $ $ $ $ $ $ $ $ $ $ $ $ 5 Z i e t % G h P U F                 ",
"        k H U v v s 7 7 Z Z 1 $ $ $ $ $ $ $ $ $ $ $ $ $ $ $ + 5 Z N e 7 % v h P U F                 ",
"        k K S c v s 7 t B Z & $ $ $ $ $ $ $ $ $ $ $ $ $ $ $ $ 1 r - e t % v h n U F                 ",
"        k H n l H s 7 t - Z & $ $ $ $ $ $ $ $ $ $ $ $ $ $ $ $ 1 O 3 e t % G h v H n                 ",
"      X h F v l k s 7 6 8 C 1 $ $ $ $ $ $ $ $ $ $ $ $ $ $ $ $ 1 * 8 e 7 % k h v v b h @             ",
"      X R R R F U S 7 7 8 8 ; $ $ $ $ $ $ $ $ $ $ $ $ $ $ $ $ 1 Z 3 e 7 % U R R R R R f             ",
"      X q.2.2.2.2.~ = 7 - 8 ; $ $ $ $ $ $ $ $ $ $ $ $ $ $ $ $ 1 O - e 6 % 2.2.2.2.2.2.f             ",
"    g ..k k l k k s = ; 1 8 3 $ $ $ $ $ $ $ $ $ $ $ $ $ $ $ $ 1 3 3 e ; % k k k k k k f             ",
"      >.U U P U U A 7 t - 8 3 $ $ $ $ $ $ $ $ $ $ $ $ $ $ $ $ $ 8 - e t % U U U U U U %.            ",
"U U U H ^ ^ X.X.X.H 7 t - - * $ $ $ $ $ $ $ $ $ $ $ $ $ $ $ $ $ - * e t % ^ X.X.X. .X.J U           ",
"U <.U k H U U H H x 7 t $ 8 - $ $ $ $ $ $ $ $ $ $ $ $ $ $ $ $ $ 8 p e t % H H J H H H l 2.          ",
"U <.U k H H H v v h = 7 e - - $ $ $ $ $ $ $ $ $ $ $ $ $ $ $ $ $ - V e 6 % v v S H H H l 2.          ",
"` <.` l l l l l l d = 7 e ; - $ $ $ $ $ $ $ $ $ $ $ $ $ $ $ $ $ - 3 8 6 % l l l l l l v 2.          ",
"<.<.<.2.2.2.2.2.2.~ = 7 $ $ $ $ $ $ $ $ $ $ $ $ $ $ $ $ $ $ $ $ $ * 8 6 % 2.2.2.2.2.2.2.<.          ",
"U h R U U U U U H x = = u $ $ $ $ $ $ $ $ $ $ $ $ $ $ $ $ $ $ $ $ $ 8 = % H U U U L H J h           ",
"H h H J U U J H n x & % % % % $ $ $ $ $ $ $ $ $ $ $ $ $ $ $ $ $ % % % & % n H J U L U H h           ",
"H h H H H H H n v k h h h h h h h h h h h h h h h h h h h h h h h h h h , v v H H H H H h           ",
"v h v v l l l l l k b S L S S S z v S L S S S S S S S S S b h n S S S v h l l l l l l v h           ",
"H h b v H H H H H H H I I U U U v H U U U U U U U U U U U H v H U U H H H v H H H H H H h           "
};