/* XPM */
static char *result[] = {
/* columns rows colors chars-per-pixel */
"50 50 183 2 ",
"   c #000000",
".  c #0A0603",
"X  c #050C02",
"o  c #0A0B04",
"O  c #0F0E0B",
"+  c #120603",
"@  c #140804",
"#  c #1D0A04",
"$  c #100D0B",
"%  c #1D0D08",
"&  c #071202",
"*  c #081602",
"=  c #0B1C03",
"-  c #051903",
";  c #14130E",
":  c #1A180F",
">  c #1A1912",
",  c #191611",
"<  c #240D06",
"1  c #2B0E07",
"2  c #260E08",
"3  c #2D1007",
"4  c #27130A",
"5  c #2C140B",
"6  c #291B0A",
"7  c #36170D",
"8  c #38160A",
"9  c #37160B",
"0  c #241610",
"q  c #221F18",
"w  c #0D2203",
"e  c #0A2F05",
"r  c #102605",
"t  c #122D05",
"y  c #162F08",
"u  c #0D3306",
"i  c #0E3806",
"p  c #143206",
"a  c #163B07",
"s  c #163308",
"d  c #173908",
"f  c #193C09",
"g  c #242116",
"h  c #2E2B1E",
"j  c #292417",
"k  c #352F10",
"l  c #28240C",
"z  c #382F22",
"x  c #393728",
"c  c #411709",
"v  c #44190B",
"b  c #4C1D0D",
"n  c #521F0E",
"m  c #411C10",
"M  c #51200F",
"N  c #42370D",
"B  c #4A2515",
"V  c #562413",
"C  c #5C2613",
"Z  c #5E2916",
"A  c #592E1A",
"S  c #622A17",
"D  c #652C19",
"F  c #6B2E19",
"G  c #6E311C",
"H  c #6A3A1C",
"J  c #723D1D",
"K  c #523D28",
"L  c #4C3825",
"P  c #773B25",
"I  c #7A3B26",
"U  c #114707",
"Y  c #1D440B",
"T  c #1E490C",
"R  c #125108",
"E  c #1D5D0B",
"W  c #1C570B",
"Q  c #204B0C",
"!  c #1D640C",
"~  c #1E690C",
"^  c #16620A",
"/  c #1E740D",
"(  c #1E7B0D",
")  c #207C0D",
"_  c #20760E",
"`  c #554511",
"'  c #7B421F",
"]  c #6E5C15",
"[  c #4B4523",
"{  c #47432E",
"}  c #5C452C",
"|  c #5B532A",
" . c #4D4B38",
".. c #5E5A3E",
"X. c #61492F",
"o. c #7C4421",
"O. c #7B4328",
"+. c #655D2F",
"@. c #624A30",
"#. c #665E31",
"$. c #6A5033",
"%. c #79593B",
"&. c #585443",
"*. c #605B49",
"=. c #66644D",
"-. c #7E774C",
";. c #7A6E51",
":. c #7C785C",
">. c #7B7860",
",. c #813E29",
"<. c #814723",
"1. c #85432E",
"2. c #89452F",
"3. c #844924",
"4. c #91562D",
"5. c #935B32",
"6. c #9A6035",
"7. c #837C53",
"8. c #847F66",
"9. c #1E850D",
"0. c #1E890D",
"q. c #208E0E",
"w. c #B69F26",
"e. c #D7C02E",
"r. c #B18E5C",
"t. c #8B8462",
"y. c #868463",
"u. c #958D6A",
"i. c #96906A",
"p. c #9A936E",
"a. c #9D9977",
"s. c #B1976F",
"d. c #A39C75",
"f. c #A39B77",
"g. c #ACA77D",
"h. c #AEAB74",
"j. c #CB9F67",
"k. c #E3B575",
"l. c #E9B272",
"z. c #E3BB7B",
"x. c #FBBC76",
"c. c #F3BC79",
"v. c #FBBD7A",
"b. c #FCC37E",
"n. c #ADA784",
"m. c #B4AD84",
"M. c #BBB68C",
"N. c #B8B186",
"B. c #B9B79C",
"V. c #8E8F8F",
"C. c #C1B98E",
"Z. c #C3BB90",
"A. c #E0BE91",
"S. c #C1BFA0",
"D. c #CCC98E",
"F. c #C7C094",
"G. c #FDC581",
"H. c #FCCA82",
"J. c #FECC91",
"K. c #FDCC9C",
"L. c #F7E89F",
"P. c #D6CFA1",
"I. c #DAD2A4",
"U. c #DBD6AB",
"Y. c #DED1B9",
"T. c #E5DDAE",
"R. c #FED5AF",
"E. c #E2DFB0",
"W. c #FFDBBD",
"Q. c #F7E8A0",
"!. c #F9EBAB",
"~. c #FBF2A9",
"^. c #ECE5B5",
"/. c #FCE4B3",
"(. c #F1DCC1",
"). c #FFDFC6",
"_. c #FEE1C3",
"`. c #FFE2C9",
"'. c #FEFACB",
"]. c #FDF4C4",
"[. c #FFEDD2",
"{. c #ECECEB",
"}. c #FEFEFF",
/* pixels */
"                                                                                                    ",
"                                                w R ( 0.q.q.E                                       ",
"                                          s T ( 9.9.9.9.9.( Y T                                     ",
"                                      X W Y 9.9.9.9.9.9.~ Y ! 9.)                                   ",
"                                    q.( Y E 9.9.( 9.9.9.0.Y Y Y d p r                               ",
"                                  q.9.Y f q.9.T r ~ 9.0.Y Y t X X = = .                             ",
"                                u 9.0.Y ~ ( 9.f p ! 9.Y d & p.u.u.w * Y                             ",
"                              . 0.9.9.Y q.q.Y t Y 0.T d ; a.U.U.M.X w = =                           ",
"                  =.>.  ^.    ( / 0.9.9.9.Y r Y 0.Y Y y.m.m.O U.P.a.w   9.        % c               ",
"                  x Z.n.T.  * q.r ( 9.9.Y t Q 0.W Y . a.F.M.z. .p.N.* X )         F                 ",
"          . o , &.. P.7.I.  * 9.. ( 9.! Y t Y ! Y = I.j.X.X.b.k.d.d.w X _         G                 ",
"            ^.^.&.    x     = T X / 9.Y d t Y Y t =.$.v.c.r._.`.g - w X !         G                 ",
"          t.  ; .           = Y   T 9.Y t p Y a . H.v.O {.  (.`.g w w = p         F                 ",
"      ; :.N.I.        . A I * Y   T Y f t = t p H b.v.}.}.  (./.g t w f           S                 ",
"        h P.-.      Z 8 . j = Y w t p t r w t w o.b.v.V.}.}.(.L.g t X T           S                 ",
"                  G   d.h | * p w t t p w w w w o.H.v.J.R.W.).L.g w . f           S                 ",
"                . # i.g . l * w w   w w w = w w H l.v.v.v.H.A.h.g w y X           V                 ",
"                I   +.o   G * w w X & w w w w w A 5.c.v.z F.'.'.'.  Y             n                 ",
"                M O.0 B D | = = X & - 9.W s X * o o.c.K U.:.> , O t .             b .               ",
"                  @ + : #.[ = y X V F Z 5 R ( t * ' J b.} G.v.v.. Y               v <               ",
"                    g.d.z k   + 7 S V @ P B 2 q.p * 3.6.G.b.b.%.t ^               v m               ",
"                      [ +.. F D F D D 7 '.p.y.i q.r = * = * = 2.T - X             v D               ",
"                      .   %.p.u.;.V 4 B.y.q z = ( 9.q.9.q.U B b X p X             v 1.              ",
"                       .o T Y d U.n.&.s y s u w = Y Y Y r 2.c X U . Q             v 2.              ",
"                    w T Y = Y Y X N ` X p t T r w * Q y P b . r Y u Y           v S S               ",
"                  p d T Y w d T R 4 e.` 6 t Y Y f w * I n + p =   w w       @ v S F                 ",
"                  p t f Y = d Y u   ] w.o p w a d T 9 v @ = = w . r : {   b F 7                     ",
"                  & t p Y w T Y u   J.a.~.: t w * S S . w Y Y Q   !._.Y.9 .                         ",
"                    * t w t a f ~ L G.).L.x . G S 8 * w r = w Y [.x.j ].L.D.                        ",
"                      t t t p & Y k.v.)./.: S 8 . w r p t t t Y K.4.s.!.L.~.                        ",
"                        p - a T . G.v.v.J.# . = = * X X X & *   b.6 b.`.Q.!.                        ",
"                          T f 4 o.o.b.v.b.& r p Y Y d d d d d * o.+ v.`.`.[.                        ",
"                            w   H o.o.J . t Y Y Y Y = Y Y Y Y f <.4 l.v.x.k.                        ",
"                            w X t y t t t t r r w r & X r r w t   . B <.J                           ",
"                            w     3 2 2 < 1 1 3 < # 3 3 3 <       . c @                             ",
"                            &     v S S S S S S 3 c c c c v       # C G                             ",
"                                w = * X & X X . . v v b v v       v S ,.                            ",
"                                d 9.Y T u r w X * t t = r t . v F G b                               ",
"                                d q.Y Y t w = T = t t w r   v F S                                   ",
"                                d 9.Y T t d T T * t t w . . C 4                                     ",
"                                f 9.T T s X ! t . X X X t 3                                         ",
"                                  d y y y ! 9.w - f d =                                             ",
"                                  0.9.9.9.9.0.s * r T *                                             ",
"                                . y y t E 9.9.= = * a r T Y                                         ",
"                                  0.0.0.9.9.9.9.9.9.U Y Y Y                                         ",
"                                  9.9.0.0.9.9.9.9.9.q.X & X                                         ",
"                                . Y f Y Q f Q f f Y f                                               ",
"                                          .                                                         ",
"                                                                                                    ",
"                                                                                                    "
};