/* XPM */
static char *c62ddb3b434346e7dd673efd8b2afcffPZi0HrzadNKpMo9t[] = {
/* columns rows colors chars-per-pixel */
"50 50 184 2 ",
"   c #080706",
".  c #0D0907",
"X  c #050609",
"o  c #0B0B0C",
"O  c #020405",
"+  c #130805",
"@  c #180B07",
"#  c #140D0C",
"$  c #1A0F0D",
"%  c #17100E",
"&  c #1B100E",
"*  c #0D0E12",
"=  c #110F11",
"-  c #0E1115",
";  c #0F1419",
":  c #131215",
">  c #1A1314",
",  c #13151A",
"<  c #1A1619",
"1  c #15191E",
"2  c #1B191D",
"3  c #240F08",
"4  c #24120D",
"5  c #2B130C",
"6  c #331107",
"7  c #3C1407",
"8  c #32150C",
"9  c #3C170A",
"0  c #37180F",
"q  c #3B190E",
"w  c #221614",
"e  c #2B1612",
"r  c #231917",
"t  c #2C1915",
"y  c #231B1C",
"u  c #2B1C1B",
"i  c #311711",
"p  c #341B14",
"a  c #3D1B12",
"s  c #321E1B",
"d  c #3A1F19",
"f  c #3A2115",
"g  c #33221E",
"h  c #3A221B",
"j  c #161B21",
"k  c #1A1E24",
"l  c #171F28",
"z  c #191F28",
"x  c #221E22",
"c  c #1C2027",
"v  c #1D232B",
"b  c #1F282F",
"n  c #1E2731",
"m  c #1F2832",
"M  c #242225",
"N  c #2C2323",
"B  c #21252C",
"V  c #2C262A",
"C  c #22282F",
"Z  c #29282F",
"A  c #332424",
"S  c #342B2D",
"D  c #212730",
"F  c #232B34",
"G  c #2A2D34",
"H  c #252E39",
"J  c #282F39",
"K  c #302E36",
"L  c #26313B",
"P  c #2A323C",
"I  c #333339",
"U  c #451A07",
"Y  c #411A0C",
"T  c #4C1D0D",
"R  c #541A06",
"E  c #531C0A",
"W  c #5C1D09",
"Q  c #431D12",
"!  c #4C1E11",
"~  c #521F11",
"^  c #671E07",
"/  c #611F0A",
"(  c #4E220C",
")  c #57220B",
"_  c #5C210C",
"`  c #5D2C0F",
"'  c #442116",
"]  c #4C2213",
"[  c #42251F",
"{  c #5B2614",
"}  c #532F1F",
"|  c #532413",
" . c #54341B",
".. c #64220C",
"X. c #6E240A",
"o. c #6F2A0D",
"O. c #772306",
"+. c #73260B",
"@. c #742A0E",
"#. c #7A2A0D",
"$. c #672C12",
"%. c #6C2E11",
"&. c #6B3613",
"*. c #6C3C16",
"=. c #743411",
"-. c #7A3511",
";. c #763A16",
":. c #422D28",
">. c #2C3642",
",. c #2E3945",
"<. c #2F3B48",
"1. c #323642",
"2. c #313A45",
"3. c #323D4A",
"4. c #35414E",
"5. c #3B424E",
"6. c #374555",
"7. c #364351",
"8. c #3A4653",
"9. c #3C4450",
"0. c #384454",
"q. c #3A4757",
"w. c #394554",
"e. c #3B4857",
"r. c #3C4856",
"t. c #3D4A5B",
"y. c #3D4A59",
"u. c #3D4A5A",
"i. c #404C5B",
"p. c #414E5D",
"a. c #414D5D",
"s. c #43505F",
"d. c #41505F",
"f. c #424F60",
"g. c #414F60",
"h. c #435060",
"j. c #475666",
"k. c #455464",
"l. c #485667",
"z. c #495567",
"x. c #4B596A",
"c. c #4D5D6C",
"v. c #832507",
"b. c #852807",
"n. c #832709",
"m. c #862E0B",
"M. c #8C2A0B",
"N. c #932C06",
"B. c #972D08",
"V. c #982E08",
"C. c #9B2B05",
"Z. c #87310D",
"A. c #8A3B0D",
"S. c #94370F",
"D. c #97390B",
"F. c #873711",
"G. c #813D14",
"H. c #A33309",
"J. c #A33C0E",
"K. c #AC3A09",
"L. c #82410E",
"P. c #81480E",
"I. c #864213",
"U. c #934113",
"Y. c #9E4311",
"T. c #9C4912",
"R. c #9E4A19",
"E. c #934B12",
"W. c #925614",
"Q. c #A1470E",
"!. c #B1400C",
"~. c #B44A0F",
"^. c #A64613",
"/. c #A64E17",
"(. c #AC4313",
"). c #BC4D13",
"_. c #A55A1E",
"`. c #B55617",
"'. c #96631E",
"]. c #A95F22",
"[. c #C05517",
"{. c #DB6B17",
"}. c #D76D1D",
"|. c #D97120",
/* pixels */
", D >.F v c - , v D F F F D c r > 1 k D 7.w.4.7.L n c t > : , j c D F c , , , : * * - - - - v L >.I ",
"* 1 v c 1 , : v P 2.4.2.2.F 1 4 > k b >.y.y.7.4.e.L g a 1 > 1 b L ,.>.L D v j > + : j c v D H >.3.1.",
"> - , j k j 1 J ,.>.<.<.H k + # 1 D >.w.y.y.y.a.2.A #.p 1 < D >.j.c.k.0.3.L v k r 4 k c B H ,.2.4.1.",
"e B L z c k 1 F >.3.L n b 1 # , v 7.w.f.t.6.w.K { (.J.9 < < >.y.x.z.k.i.y.4.P B k p u v v F 3.y.r.5.",
"w 2.3.H k , 1 L 0.6.7.b k , # : b >.2.1.m D [ #.{ '.`.v.8 > D 2.x.j.z.f.u.0.a.J C x T x v D >.f.a.9.",
", H 3.P D : j P ,.3.3.,.j > # o 1 , e ! t d +.' k w q / W & < D a.x.x.s.r.a.4.>.F B u T t x B 2.i.5.",
"F 4.P v , * 1 L 0.7.4.w.P > . o * : > 8 X.E.o.y 1 , > 5 R 5 $ 1 C 2.a.y.7.4.,.2.J D v E / n.~ w s d ",
"v B * k k - 1 n >.w.e.a.3.> o , 1 v v 1 4 W.) e 2 v > 5 y c < # < k F P P P P L F F B Q W K.{.}.|.}.",
"> : o F 2.1 * k P y.e.y.H , 1 B B j L k 4 P.a k L >.y w B D k : * : 1 v F >.1.F J F D ! N.V.T.A.=.U.",
"< # : - b b * : , k H c < > , F ,.c D k 4 L.s F 3.3.y 2 H >.k 1 * * , k C L P D F B y 9 Y i t u g  .",
", > = - o - 1 k c k , : > & o : c k j , 4 ..u P 4.2.x t F ,.c k j , - , B >.P c > w e 1 1 , 1 k N } ",
"b k < * o 1 k v B b B v j 1 1 - * - * * o w x L <.>.B t M >.v c k j j , j F j * , k k v v v k B S :.",
"3.B k j : 1 v D H P >.P F v k j , * : : * = v P 3.>.b k t v c c v k 1 , : : o j v D D 4.y.3.,.3.2.I ",
"w.4.3.L : > v F >.4.0.3.,.P b j , , - - , * k >.w.7.D k t p c v b c j j 1 - j F >.2.w.j.t.4.3.2.1.P ",
"0.y.0.L o # k D P 0.y.r.y.4.H c k 1 1 o o : v ,.t.4.F j e / ] c v c j k j , D >.3.4.0.t.a.7.>.P P F ",
",.2.3.2.j # 1 b P ,.3.r.i.7.3.v k k , : , j C >.w.7.L k t W M.p k k j k j j B F H F L 3.y.3.>.F F B ",
">.,.2.>.j # > c F ,.,.,.>.F B 1 , , : , j j b H ,.e.<.F k a #.F.t u d d u 1 c c 1 , 1 b F F b P r.4.",
"<.<.<.D , - # , v P P P F v j * * * j j c z c F >.e.e.3.L 2 I.G.U...a x B F F D B c j , j k C 0.j.r.",
"0.4.,.L k o o & k L 2.>.J v v , * 1 D n F m v F >.w.w.e.L g W.$.].w c D L ,.>.>.L v k * - 1 b 2.k.y.",
"t.y.3.P H k > & 1 b 2.3.H v v B - k P 7.>.>.>.3.7.7.w.3.M *.*.%.h v D L >.>.,.>.F D v , o - 1 k F 1.",
">.2.3.>.F F 1 , j j b F b c v C , c ,.w.t.y.y.e.7.,.P c p Z.t T k >.4.3.3.,.>.L F b k - * k b k x u ",
"j c D F B c 1 : , k k j 1 1 k 1 $ k L 4.f.y.>.m F D k > W 8 e w F y.w.w.y.2.P D B k - * k F P y t e ",
"j k 1 , , k v v , 1 k k j v c w 6 r k b n k k c j , $ W 0 : 8 1 P 7.7.w.j.0.P F v , * j H ,.y.N -.&.",
"$ > < k F D B c & : j k j b B t ( Y & : - , j 1 > ..R.).w w e k >.3.4.6.j.3.L F j o - v 4.u.f.x { [.",
"$ @ : b 2.C B k   + % 1 , 1 1 q ` T $ * , 1 : : e Q $.~.B._ 2 D >.<.w.r.4.L H b = * , D 0.a.H 1 T W ",
"v > : D L D c o X o o * * - : 5 0 r k c b v B J F k > ^ X.A F ,.>.,.w.3.m F F y # - k H 2.>., , t x ",
"P b , b F D - X * * o 1 , : : = , k F >.2.2.3.w.y.L 1 5 M ,.w.w.>.H b c b H v e # , v L P , , 1 < G ",
"y.,.j L J F k o , , - P b , , * * k F P >.>.,.,.>.D 1 > k H P >.L b c c m D 1 T # 1 B P v * , 1 1 1.",
"j.0.l F P D c , v c c >.P c j - * , b D H H P P L b 1 < : - 1 k k c v B b j > b.9 2 c J : # 1 1 v F ",
"y.>.j B >.B k , v F H >.2.D c , * o k B F H P >.>.F j , , o o , j c F J v , ] {.Q...p t 5 e k v b L ",
"P F , k v j * ; k F P >.7.2.v j , $ k b >.P >.4.0.,.j 1 , o o o - j v c r W @.;.A.D.m.^./.p v D F >.",
">.B , , 1 o o , k P 3.L L 2.H k , 4 k D 4.P 3.w.u.>.k j : o * * o : : * # , j k y p e p _.| x C F P ",
"F 1 , 1 j : - : , c >.H n k j > 5 p M >.0.L 4.r.z.F b k > - - : = : : o > v C F F v k 2 s S.Q s M N ",
", 1 c c c j 1 * * , j k j < : 4 U p B 4.4.H 3.r.k.P L x e , ; , : & # 3 u D P ,.3.3.H v x ] +.Q t a ",
"k v D D v k b : o o - = : > c x ] p F 7.,.H 2.r.a.2.J u w 1 , , , : 7 W x H <.3.6.w.2.F b x p r y Q ",
"c D H H v D D 1 o o o # w M P F t p 2.4.L D F 2.P L k 0 < k k , * * E H.s H 3.7.w.e.w.0.P F M w x g ",
"c n n n H D D 2 6 7 6 e t F 3.>.B r D L L b c b B k y ) 2 k k , 4 # E V...G 3.w.y.t.a.k.,.H L 1 B M ",
"k H >.>.L F H 1 4 5 e e 2 F >.L B < c P 3.L c , , , Q +.x D k y ..@.~ y Q h L 3.w.w.e.a.3.>.>.j F V ",
"c H >.,.P H D , < c v v F P >.P D < v ,.2.H v 1 > Y Y./ M F j 5 d s s y 1 t d A Z J P P J L B j J V ",
"y F >.>.L D j k B F F H L ,.2.P D > j m F n j = w u  .Y k v > y B J F b k 1 q H.M.! t > o X , k F G ",
"u B L ,.F k : k k b L 4.3.3.7.3.F : : j j , = > k B v t 1 1 > M >.7.7.3.P M p !.C.R 8 < : X , k D Z ",
"t y 2.4.D 1 , k D L >.a.a.0.i.i.F , : 1 1 : > c L P L M , : 2 H r.r.w.7.3.M f K.O.8 & , o O * 1 B M ",
"5 < 2.3.v , k D P L >.w.3.0.j.3.c : , 1 j , : v 2.3.3.P , : v >.3.>.3.3.G 2 =.N.R 4 < , 1 , * : k y ",
"> : B P 1 1 v P L >.3.3.,.F >.C < # , k c k : c 3.3.3.3.j , c B F H F G u u J.^ i k C H b v k j k y ",
"& - , , o , F P L ,.3.2.,.b j c : , c k b v , j ,.7.3.3.v 1 v C F F D N t ..+.t B L P F v c c v k y ",
"< 1 , - . : b L 3.a.y.>.H D c k 1 D F k j c k , b ,.3.,.F 1 k v c , - 2 p T M F F F b b H P P D k y ",
", j j , $ # v P w.j.a.>.b b 1 b P 7.3.D 1 v c , j m >.>.L j , , j B F B < 1 v b b m >.4.4.4.1.F k y ",
", 1 j 1 4 & k P 2.r.4.F c 1 k >.0.y.4.F , k n k 1 k H H F c * k H P 5.b , , z F >.y.k.u.t.y.0.L k ] ",
", c D c e w k F F F D k j 1 c >.0.w.4.B , c H m j 1 b H >.n , D H P P c ; k H ,.4.r.u.d.k.a.,.v ' @.",
"D J 2.P c < k Z k c j j 1 * j P 0.w.S e , n >.P c 1 c H H c k H 2.2.D j 1 D P 2.4.0.y.e.4.F j > r y "
};